<?xml version="1.0" encoding="UTF-8" standalone="no"?>
<!DOCTYPE svg PUBLIC "-//W3C//DTD SVG 1.1//EN"
 "http://www.w3.org/Graphics/SVG/1.1/DTD/svg11.dtd">
<!-- Generated by graphviz version 10.0.1 (20240210.2158)
 -->
<!-- Pages: 1 -->
<svg width="743pt" height="223pt"
 viewBox="0.00 0.00 743.25 222.50" xmlns="http://www.w3.org/2000/svg" xmlns:xlink="http://www.w3.org/1999/xlink">
<g id="graph0" class="graph" transform="scale(1 1) rotate(0) translate(4 218.5)">
<polygon fill="white" stroke="none" points="-4,4 -4,-218.5 739.25,-218.5 739.25,4 -4,4"/>
<!-- 4330003184 -->
<g id="node1" class="node">
<title>4330003184</title>
<polygon fill="none" stroke="black" points="646.5,-46.5 646.5,-120 735.25,-120 735.25,-46.5 646.5,-46.5"/>
<text text-anchor="middle" x="690.88" y="-102.7" font-family="Times,serif" font-size="14.00">L</text>
<polyline fill="none" stroke="black" points="646.5,-95.5 735.25,-95.5"/>
<text text-anchor="middle" x="690.88" y="-78.2" font-family="Times,serif" font-size="14.00">data=&#45;8.0000</text>
<polyline fill="none" stroke="black" points="646.5,-71 735.25,-71"/>
<text text-anchor="middle" x="690.88" y="-53.7" font-family="Times,serif" font-size="14.00">grad=0.0000</text>
</g>
<!-- 4330003184* -->
<g id="node2" class="node">
<title>4330003184*</title>
<ellipse fill="none" stroke="black" cx="583.5" cy="-83.25" rx="27" ry="18"/>
<text text-anchor="middle" x="583.5" y="-78.2" font-family="Times,serif" font-size="14.00">*</text>
</g>
<!-- 4330003184*&#45;&gt;4330003184 -->
<g id="edge1" class="edge">
<title>4330003184*&#45;&gt;4330003184</title>
<path fill="none" stroke="black" d="M610.82,-83.25C618.19,-83.25 626.5,-83.25 634.88,-83.25"/>
<polygon fill="black" stroke="black" points="634.77,-86.75 644.77,-83.25 634.77,-79.75 634.77,-86.75"/>
</g>
<!-- 4296968608 -->
<g id="node3" class="node">
<title>4296968608</title>
<polygon fill="none" stroke="black" points="433.25,-93.5 433.25,-167 519,-167 519,-93.5 433.25,-93.5"/>
<text text-anchor="middle" x="476.12" y="-149.7" font-family="Times,serif" font-size="14.00">d</text>
<polyline fill="none" stroke="black" points="433.25,-142.5 519,-142.5"/>
<text text-anchor="middle" x="476.12" y="-125.2" font-family="Times,serif" font-size="14.00">data=4.0000</text>
<polyline fill="none" stroke="black" points="433.25,-118 519,-118"/>
<text text-anchor="middle" x="476.12" y="-100.7" font-family="Times,serif" font-size="14.00">grad=0.0000</text>
</g>
<!-- 4296968608&#45;&gt;4330003184* -->
<g id="edge2" class="edge">
<title>4296968608&#45;&gt;4330003184*</title>
<path fill="none" stroke="black" d="M519.38,-111.4C529.61,-106.84 540.39,-102.03 550.09,-97.7"/>
<polygon fill="black" stroke="black" points="551.41,-100.95 559.11,-93.68 548.56,-94.56 551.41,-100.95"/>
</g>
<!-- 4330003136 -->
<g id="node4" class="node">
<title>4330003136</title>
<polygon fill="none" stroke="black" points="431.75,-0.5 431.75,-74 520.5,-74 520.5,-0.5 431.75,-0.5"/>
<text text-anchor="middle" x="476.12" y="-56.7" font-family="Times,serif" font-size="14.00">f</text>
<polyline fill="none" stroke="black" points="431.75,-49.5 520.5,-49.5"/>
<text text-anchor="middle" x="476.12" y="-32.2" font-family="Times,serif" font-size="14.00">data=&#45;2.0000</text>
<polyline fill="none" stroke="black" points="431.75,-25 520.5,-25"/>
<text text-anchor="middle" x="476.12" y="-7.7" font-family="Times,serif" font-size="14.00">grad=0.0000</text>
</g>
<!-- 4330003136&#45;&gt;4330003184* -->
<g id="edge3" class="edge">
<title>4330003136&#45;&gt;4330003184*</title>
<path fill="none" stroke="black" d="M520.9,-56.36C530.65,-60.62 540.83,-65.06 550.03,-69.08"/>
<polygon fill="black" stroke="black" points="548.35,-72.16 558.92,-72.96 551.15,-65.75 548.35,-72.16"/>
</g>
<!-- 4296968608+ -->
<g id="node5" class="node">
<title>4296968608+</title>
<ellipse fill="none" stroke="black" cx="368.75" cy="-130.25" rx="27" ry="18"/>
<text text-anchor="middle" x="368.75" y="-125.2" font-family="Times,serif" font-size="14.00">+</text>
</g>
<!-- 4296968608+&#45;&gt;4296968608 -->
<g id="edge4" class="edge">
<title>4296968608+&#45;&gt;4296968608</title>
<path fill="none" stroke="black" d="M396.07,-130.25C403.78,-130.25 412.51,-130.25 421.29,-130.25"/>
<polygon fill="black" stroke="black" points="421.25,-133.75 431.25,-130.25 421.25,-126.75 421.25,-133.75"/>
</g>
<!-- 4296970000 -->
<g id="node6" class="node">
<title>4296970000</title>
<polygon fill="none" stroke="black" points="214.75,-140.5 214.75,-214 305.75,-214 305.75,-140.5 214.75,-140.5"/>
<text text-anchor="middle" x="260.25" y="-196.7" font-family="Times,serif" font-size="14.00">c</text>
<polyline fill="none" stroke="black" points="214.75,-189.5 305.75,-189.5"/>
<text text-anchor="middle" x="260.25" y="-172.2" font-family="Times,serif" font-size="14.00">data=10.0000</text>
<polyline fill="none" stroke="black" points="214.75,-165 305.75,-165"/>
<text text-anchor="middle" x="260.25" y="-147.7" font-family="Times,serif" font-size="14.00">grad=0.0000</text>
</g>
<!-- 4296970000&#45;&gt;4296968608+ -->
<g id="edge5" class="edge">
<title>4296970000&#45;&gt;4296968608+</title>
<path fill="none" stroke="black" d="M306.11,-157.45C315.91,-153.13 326.11,-148.63 335.32,-144.56"/>
<polygon fill="black" stroke="black" points="336.47,-147.88 344.21,-140.64 333.65,-141.47 336.47,-147.88"/>
</g>
<!-- 4296968416 -->
<g id="node7" class="node">
<title>4296968416</title>
<polygon fill="none" stroke="black" points="215.88,-47.5 215.88,-121 304.62,-121 304.62,-47.5 215.88,-47.5"/>
<text text-anchor="middle" x="260.25" y="-103.7" font-family="Times,serif" font-size="14.00">e</text>
<polyline fill="none" stroke="black" points="215.88,-96.5 304.62,-96.5"/>
<text text-anchor="middle" x="260.25" y="-79.2" font-family="Times,serif" font-size="14.00">data=&#45;6.0000</text>
<polyline fill="none" stroke="black" points="215.88,-72 304.62,-72"/>
<text text-anchor="middle" x="260.25" y="-54.7" font-family="Times,serif" font-size="14.00">grad=0.0000</text>
</g>
<!-- 4296968416&#45;&gt;4296968608+ -->
<g id="edge6" class="edge">
<title>4296968416&#45;&gt;4296968608+</title>
<path fill="none" stroke="black" d="M304.87,-103.09C314.87,-107.41 325.33,-111.93 334.78,-116.01"/>
<polygon fill="black" stroke="black" points="333.38,-119.22 343.94,-119.97 336.15,-112.79 333.38,-119.22"/>
</g>
<!-- 4296968416* -->
<g id="node8" class="node">
<title>4296968416*</title>
<ellipse fill="none" stroke="black" cx="151.75" cy="-84.25" rx="27" ry="18"/>
<text text-anchor="middle" x="151.75" y="-79.2" font-family="Times,serif" font-size="14.00">*</text>
</g>
<!-- 4296968416*&#45;&gt;4296968416 -->
<g id="edge7" class="edge">
<title>4296968416*&#45;&gt;4296968416</title>
<path fill="none" stroke="black" d="M179.08,-84.25C186.7,-84.25 195.32,-84.25 204.02,-84.25"/>
<polygon fill="black" stroke="black" points="203.89,-87.75 213.89,-84.25 203.89,-80.75 203.89,-87.75"/>
</g>
<!-- 4296970192 -->
<g id="node9" class="node">
<title>4296970192</title>
<polygon fill="none" stroke="black" points="1.5,-94.5 1.5,-168 87.25,-168 87.25,-94.5 1.5,-94.5"/>
<text text-anchor="middle" x="44.38" y="-150.7" font-family="Times,serif" font-size="14.00">a</text>
<polyline fill="none" stroke="black" points="1.5,-143.5 87.25,-143.5"/>
<text text-anchor="middle" x="44.38" y="-126.2" font-family="Times,serif" font-size="14.00">data=2.0000</text>
<polyline fill="none" stroke="black" points="1.5,-119 87.25,-119"/>
<text text-anchor="middle" x="44.38" y="-101.7" font-family="Times,serif" font-size="14.00">grad=0.0000</text>
</g>
<!-- 4296970192&#45;&gt;4296968416* -->
<g id="edge8" class="edge">
<title>4296970192&#45;&gt;4296968416*</title>
<path fill="none" stroke="black" d="M87.63,-112.4C97.86,-107.84 108.64,-103.03 118.34,-98.7"/>
<polygon fill="black" stroke="black" points="119.66,-101.95 127.36,-94.68 116.81,-95.56 119.66,-101.95"/>
</g>
<!-- 4296970096 -->
<g id="node10" class="node">
<title>4296970096</title>
<polygon fill="none" stroke="black" points="0,-1.5 0,-75 88.75,-75 88.75,-1.5 0,-1.5"/>
<text text-anchor="middle" x="44.38" y="-57.7" font-family="Times,serif" font-size="14.00">b</text>
<polyline fill="none" stroke="black" points="0,-50.5 88.75,-50.5"/>
<text text-anchor="middle" x="44.38" y="-33.2" font-family="Times,serif" font-size="14.00">data=&#45;3.0000</text>
<polyline fill="none" stroke="black" points="0,-26 88.75,-26"/>
<text text-anchor="middle" x="44.38" y="-8.7" font-family="Times,serif" font-size="14.00">grad=0.0000</text>
</g>
<!-- 4296970096&#45;&gt;4296968416* -->
<g id="edge9" class="edge">
<title>4296970096&#45;&gt;4296968416*</title>
<path fill="none" stroke="black" d="M89.15,-57.36C98.9,-61.62 109.08,-66.06 118.28,-70.08"/>
<polygon fill="black" stroke="black" points="116.6,-73.16 127.17,-73.96 119.4,-66.75 116.6,-73.16"/>
</g>
</g>
</svg>
