<?xml version="1.0" encoding="UTF-8" standalone="no"?>
<!DOCTYPE svg PUBLIC "-//W3C//DTD SVG 1.1//EN"
 "http://www.w3.org/Graphics/SVG/1.1/DTD/svg11.dtd">
<!-- Generated by graphviz version 10.0.1 (20240210.2158)
 -->
<!-- Pages: 1 -->
<svg width="743pt" height="268pt"
 viewBox="0.00 0.00 743.25 267.50" xmlns="http://www.w3.org/2000/svg" xmlns:xlink="http://www.w3.org/1999/xlink">
<g id="graph0" class="graph" transform="scale(1 1) rotate(0) translate(4 263.5)">
<polygon fill="white" stroke="none" points="-4,4 -4,-263.5 739.25,-263.5 739.25,4 -4,4"/>
<!-- 4390214336 -->
<g id="node1" class="node">
<title>4390214336</title>
<polygon fill="none" stroke="black" points="646.5,-138.5 646.5,-212 735.25,-212 735.25,-138.5 646.5,-138.5"/>
<text text-anchor="middle" x="690.88" y="-194.7" font-family="Times,serif" font-size="14.00">L</text>
<polyline fill="none" stroke="black" points="646.5,-187.5 735.25,-187.5"/>
<text text-anchor="middle" x="690.88" y="-170.2" font-family="Times,serif" font-size="14.00">data=&#45;8.0000</text>
<polyline fill="none" stroke="black" points="646.5,-163 735.25,-163"/>
<text text-anchor="middle" x="690.88" y="-145.7" font-family="Times,serif" font-size="14.00">grad=0.0000</text>
</g>
<!-- 4390214336* -->
<g id="node2" class="node">
<title>4390214336*</title>
<ellipse fill="none" stroke="black" cx="583.5" cy="-175.25" rx="27" ry="18"/>
<text text-anchor="middle" x="583.5" y="-170.2" font-family="Times,serif" font-size="14.00">*</text>
</g>
<!-- 4390214336*&#45;&gt;4390214336 -->
<g id="edge1" class="edge">
<title>4390214336*&#45;&gt;4390214336</title>
<path fill="none" stroke="black" d="M610.82,-175.25C618.19,-175.25 626.5,-175.25 634.88,-175.25"/>
<polygon fill="black" stroke="black" points="634.77,-178.75 644.77,-175.25 634.77,-171.75 634.77,-178.75"/>
</g>
<!-- 4390214288 -->
<g id="node3" class="node">
<title>4390214288</title>
<polygon fill="none" stroke="black" points="431.75,-185.5 431.75,-259 520.5,-259 520.5,-185.5 431.75,-185.5"/>
<text text-anchor="middle" x="476.12" y="-241.7" font-family="Times,serif" font-size="14.00">f</text>
<polyline fill="none" stroke="black" points="431.75,-234.5 520.5,-234.5"/>
<text text-anchor="middle" x="476.12" y="-217.2" font-family="Times,serif" font-size="14.00">data=&#45;2.0000</text>
<polyline fill="none" stroke="black" points="431.75,-210 520.5,-210"/>
<text text-anchor="middle" x="476.12" y="-192.7" font-family="Times,serif" font-size="14.00">grad=0.0000</text>
</g>
<!-- 4390214288&#45;&gt;4390214336* -->
<g id="edge2" class="edge">
<title>4390214288&#45;&gt;4390214336*</title>
<path fill="none" stroke="black" d="M520.9,-202.73C530.65,-198.38 540.83,-193.84 550.03,-189.73"/>
<polygon fill="black" stroke="black" points="551.22,-193.04 558.92,-185.77 548.36,-186.64 551.22,-193.04"/>
</g>
<!-- 4365765024 -->
<g id="node4" class="node">
<title>4365765024</title>
<polygon fill="none" stroke="black" points="433.25,-92.5 433.25,-166 519,-166 519,-92.5 433.25,-92.5"/>
<text text-anchor="middle" x="476.12" y="-148.7" font-family="Times,serif" font-size="14.00">d</text>
<polyline fill="none" stroke="black" points="433.25,-141.5 519,-141.5"/>
<text text-anchor="middle" x="476.12" y="-124.2" font-family="Times,serif" font-size="14.00">data=4.0000</text>
<polyline fill="none" stroke="black" points="433.25,-117 519,-117"/>
<text text-anchor="middle" x="476.12" y="-99.7" font-family="Times,serif" font-size="14.00">grad=0.0000</text>
</g>
<!-- 4365765024&#45;&gt;4390214336* -->
<g id="edge3" class="edge">
<title>4365765024&#45;&gt;4390214336*</title>
<path fill="none" stroke="black" d="M519.38,-147.69C529.53,-152.13 540.22,-156.79 549.86,-161"/>
<polygon fill="black" stroke="black" points="548.25,-164.12 558.82,-164.91 551.05,-157.7 548.25,-164.12"/>
</g>
<!-- 4365765024+ -->
<g id="node5" class="node">
<title>4365765024+</title>
<ellipse fill="none" stroke="black" cx="368.75" cy="-129.25" rx="27" ry="18"/>
<text text-anchor="middle" x="368.75" y="-124.2" font-family="Times,serif" font-size="14.00">+</text>
</g>
<!-- 4365765024+&#45;&gt;4365765024 -->
<g id="edge4" class="edge">
<title>4365765024+&#45;&gt;4365765024</title>
<path fill="none" stroke="black" d="M396.07,-129.25C403.78,-129.25 412.51,-129.25 421.29,-129.25"/>
<polygon fill="black" stroke="black" points="421.25,-132.75 431.25,-129.25 421.25,-125.75 421.25,-132.75"/>
</g>
<!-- 4365766416 -->
<g id="node6" class="node">
<title>4365766416</title>
<polygon fill="none" stroke="black" points="214.75,-139.5 214.75,-213 305.75,-213 305.75,-139.5 214.75,-139.5"/>
<text text-anchor="middle" x="260.25" y="-195.7" font-family="Times,serif" font-size="14.00">c</text>
<polyline fill="none" stroke="black" points="214.75,-188.5 305.75,-188.5"/>
<text text-anchor="middle" x="260.25" y="-171.2" font-family="Times,serif" font-size="14.00">data=10.0000</text>
<polyline fill="none" stroke="black" points="214.75,-164 305.75,-164"/>
<text text-anchor="middle" x="260.25" y="-146.7" font-family="Times,serif" font-size="14.00">grad=0.0000</text>
</g>
<!-- 4365766416&#45;&gt;4365765024+ -->
<g id="edge5" class="edge">
<title>4365766416&#45;&gt;4365765024+</title>
<path fill="none" stroke="black" d="M306.11,-156.45C315.91,-152.13 326.11,-147.63 335.32,-143.56"/>
<polygon fill="black" stroke="black" points="336.47,-146.88 344.21,-139.64 333.65,-140.47 336.47,-146.88"/>
</g>
<!-- 4365764832 -->
<g id="node7" class="node">
<title>4365764832</title>
<polygon fill="none" stroke="black" points="215.88,-46.5 215.88,-120 304.62,-120 304.62,-46.5 215.88,-46.5"/>
<text text-anchor="middle" x="260.25" y="-102.7" font-family="Times,serif" font-size="14.00">e</text>
<polyline fill="none" stroke="black" points="215.88,-95.5 304.62,-95.5"/>
<text text-anchor="middle" x="260.25" y="-78.2" font-family="Times,serif" font-size="14.00">data=&#45;6.0000</text>
<polyline fill="none" stroke="black" points="215.88,-71 304.62,-71"/>
<text text-anchor="middle" x="260.25" y="-53.7" font-family="Times,serif" font-size="14.00">grad=0.0000</text>
</g>
<!-- 4365764832&#45;&gt;4365765024+ -->
<g id="edge6" class="edge">
<title>4365764832&#45;&gt;4365765024+</title>
<path fill="none" stroke="black" d="M304.87,-102.09C314.87,-106.41 325.33,-110.93 334.78,-115.01"/>
<polygon fill="black" stroke="black" points="333.38,-118.22 343.94,-118.97 336.15,-111.79 333.38,-118.22"/>
</g>
<!-- 4365764832* -->
<g id="node8" class="node">
<title>4365764832*</title>
<ellipse fill="none" stroke="black" cx="151.75" cy="-83.25" rx="27" ry="18"/>
<text text-anchor="middle" x="151.75" y="-78.2" font-family="Times,serif" font-size="14.00">*</text>
</g>
<!-- 4365764832*&#45;&gt;4365764832 -->
<g id="edge7" class="edge">
<title>4365764832*&#45;&gt;4365764832</title>
<path fill="none" stroke="black" d="M179.08,-83.25C186.7,-83.25 195.32,-83.25 204.02,-83.25"/>
<polygon fill="black" stroke="black" points="203.89,-86.75 213.89,-83.25 203.89,-79.75 203.89,-86.75"/>
</g>
<!-- 4365766608 -->
<g id="node9" class="node">
<title>4365766608</title>
<polygon fill="none" stroke="black" points="1.5,-93.5 1.5,-167 87.25,-167 87.25,-93.5 1.5,-93.5"/>
<text text-anchor="middle" x="44.38" y="-149.7" font-family="Times,serif" font-size="14.00">a</text>
<polyline fill="none" stroke="black" points="1.5,-142.5 87.25,-142.5"/>
<text text-anchor="middle" x="44.38" y="-125.2" font-family="Times,serif" font-size="14.00">data=2.0000</text>
<polyline fill="none" stroke="black" points="1.5,-118 87.25,-118"/>
<text text-anchor="middle" x="44.38" y="-100.7" font-family="Times,serif" font-size="14.00">grad=0.0000</text>
</g>
<!-- 4365766608&#45;&gt;4365764832* -->
<g id="edge8" class="edge">
<title>4365766608&#45;&gt;4365764832*</title>
<path fill="none" stroke="black" d="M87.63,-111.4C97.86,-106.84 108.64,-102.03 118.34,-97.7"/>
<polygon fill="black" stroke="black" points="119.66,-100.95 127.36,-93.68 116.81,-94.56 119.66,-100.95"/>
</g>
<!-- 4365766512 -->
<g id="node10" class="node">
<title>4365766512</title>
<polygon fill="none" stroke="black" points="0,-0.5 0,-74 88.75,-74 88.75,-0.5 0,-0.5"/>
<text text-anchor="middle" x="44.38" y="-56.7" font-family="Times,serif" font-size="14.00">b</text>
<polyline fill="none" stroke="black" points="0,-49.5 88.75,-49.5"/>
<text text-anchor="middle" x="44.38" y="-32.2" font-family="Times,serif" font-size="14.00">data=&#45;3.0000</text>
<polyline fill="none" stroke="black" points="0,-25 88.75,-25"/>
<text text-anchor="middle" x="44.38" y="-7.7" font-family="Times,serif" font-size="14.00">grad=0.0000</text>
</g>
<!-- 4365766512&#45;&gt;4365764832* -->
<g id="edge9" class="edge">
<title>4365766512&#45;&gt;4365764832*</title>
<path fill="none" stroke="black" d="M89.15,-56.36C98.9,-60.62 109.08,-65.06 118.28,-69.08"/>
<polygon fill="black" stroke="black" points="116.6,-72.16 127.17,-72.96 119.4,-65.75 116.6,-72.16"/>
</g>
</g>
</svg>
