<?xml version="1.0" encoding="UTF-8" standalone="no"?>
<!DOCTYPE svg PUBLIC "-//W3C//DTD SVG 1.1//EN"
 "http://www.w3.org/Graphics/SVG/1.1/DTD/svg11.dtd">
<!-- Generated by graphviz version 10.0.1 (20240210.2158)
 -->
<!-- Pages: 1 -->
<svg width="522pt" height="176pt"
 viewBox="0.00 0.00 521.75 175.50" xmlns="http://www.w3.org/2000/svg" xmlns:xlink="http://www.w3.org/1999/xlink">
<g id="graph0" class="graph" transform="scale(1 1) rotate(0) translate(4 171.5)">
<polygon fill="white" stroke="none" points="-4,4 -4,-171.5 517.75,-171.5 517.75,4 -4,4"/>
<!-- 4346077488 -->
<g id="node1" class="node">
<title>4346077488</title>
<polygon fill="none" stroke="black" points="428,-46.5 428,-120 513.75,-120 513.75,-46.5 428,-46.5"/>
<text text-anchor="middle" x="470.88" y="-102.7" font-family="Times,serif" font-size="14.00">c</text>
<polyline fill="none" stroke="black" points="428,-95.5 513.75,-95.5"/>
<text text-anchor="middle" x="470.88" y="-78.2" font-family="Times,serif" font-size="14.00">data=0.5000</text>
<polyline fill="none" stroke="black" points="428,-71 513.75,-71"/>
<text text-anchor="middle" x="470.88" y="-53.7" font-family="Times,serif" font-size="14.00">grad=1.0000</text>
</g>
<!-- 4346077488* -->
<g id="node2" class="node">
<title>4346077488*</title>
<ellipse fill="none" stroke="black" cx="365" cy="-83.25" rx="27" ry="18"/>
<text text-anchor="middle" x="365" y="-78.2" font-family="Times,serif" font-size="14.00">*</text>
</g>
<!-- 4346077488*&#45;&gt;4346077488 -->
<g id="edge1" class="edge">
<title>4346077488*&#45;&gt;4346077488</title>
<path fill="none" stroke="black" d="M392.48,-83.25C399.84,-83.25 408.1,-83.25 416.41,-83.25"/>
<polygon fill="black" stroke="black" points="416.19,-86.75 426.19,-83.25 416.19,-79.75 416.19,-86.75"/>
</g>
<!-- 4346015120 -->
<g id="node3" class="node">
<title>4346015120</title>
<polygon fill="none" stroke="black" points="216.25,-93.5 216.25,-167 302,-167 302,-93.5 216.25,-93.5"/>
<text text-anchor="middle" x="259.12" y="-149.7" font-family="Times,serif" font-size="14.00">a</text>
<polyline fill="none" stroke="black" points="216.25,-142.5 302,-142.5"/>
<text text-anchor="middle" x="259.12" y="-125.2" font-family="Times,serif" font-size="14.00">data=2.0000</text>
<polyline fill="none" stroke="black" points="216.25,-118 302,-118"/>
<text text-anchor="middle" x="259.12" y="-100.7" font-family="Times,serif" font-size="14.00">grad=0.2500</text>
</g>
<!-- 4346015120&#45;&gt;4346077488* -->
<g id="edge2" class="edge">
<title>4346015120&#45;&gt;4346077488*</title>
<path fill="none" stroke="black" d="M302.37,-111.13C312.14,-106.71 322.39,-102.08 331.66,-97.88"/>
<polygon fill="black" stroke="black" points="332.96,-101.14 340.62,-93.83 330.07,-94.76 332.96,-101.14"/>
</g>
<!-- 4346015408 -->
<g id="node4" class="node">
<title>4346015408</title>
<polygon fill="none" stroke="black" points="216.25,-0.5 216.25,-74 302,-74 302,-0.5 216.25,-0.5"/>
<text text-anchor="middle" x="259.12" y="-56.7" font-family="Times,serif" font-size="14.00">b**&#45;1</text>
<polyline fill="none" stroke="black" points="216.25,-49.5 302,-49.5"/>
<text text-anchor="middle" x="259.12" y="-32.2" font-family="Times,serif" font-size="14.00">data=0.2500</text>
<polyline fill="none" stroke="black" points="216.25,-25 302,-25"/>
<text text-anchor="middle" x="259.12" y="-7.7" font-family="Times,serif" font-size="14.00">grad=2.0000</text>
</g>
<!-- 4346015408&#45;&gt;4346077488* -->
<g id="edge3" class="edge">
<title>4346015408&#45;&gt;4346077488*</title>
<path fill="none" stroke="black" d="M302.37,-55.96C312.14,-60.29 322.39,-64.82 331.66,-68.93"/>
<polygon fill="black" stroke="black" points="330.06,-72.05 340.62,-72.9 332.89,-65.65 330.06,-72.05"/>
</g>
<!-- 4346015408** -->
<g id="node5" class="node">
<title>4346015408**</title>
<ellipse fill="none" stroke="black" cx="153.25" cy="-37.25" rx="27" ry="18"/>
<text text-anchor="middle" x="153.25" y="-32.2" font-family="Times,serif" font-size="14.00">**</text>
</g>
<!-- 4346015408**&#45;&gt;4346015408 -->
<g id="edge4" class="edge">
<title>4346015408**&#45;&gt;4346015408</title>
<path fill="none" stroke="black" d="M180.73,-37.25C188.09,-37.25 196.35,-37.25 204.66,-37.25"/>
<polygon fill="black" stroke="black" points="204.44,-40.75 214.44,-37.25 204.44,-33.75 204.44,-40.75"/>
</g>
<!-- 4346014448 -->
<g id="node6" class="node">
<title>4346014448</title>
<polygon fill="none" stroke="black" points="0,-0.5 0,-74 90.25,-74 90.25,-0.5 0,-0.5"/>
<text text-anchor="middle" x="45.12" y="-56.7" font-family="Times,serif" font-size="14.00">b</text>
<polyline fill="none" stroke="black" points="0,-49.5 90.25,-49.5"/>
<text text-anchor="middle" x="45.12" y="-32.2" font-family="Times,serif" font-size="14.00">data=4.0000</text>
<polyline fill="none" stroke="black" points="0,-25 90.25,-25"/>
<text text-anchor="middle" x="45.12" y="-7.7" font-family="Times,serif" font-size="14.00">grad=&#45;0.1250</text>
</g>
<!-- 4346014448&#45;&gt;4346015408** -->
<g id="edge5" class="edge">
<title>4346014448&#45;&gt;4346015408**</title>
<path fill="none" stroke="black" d="M90.52,-37.25C98.51,-37.25 106.78,-37.25 114.56,-37.25"/>
<polygon fill="black" stroke="black" points="114.39,-40.75 124.39,-37.25 114.39,-33.75 114.39,-40.75"/>
</g>
</g>
</svg>
