<?xml version="1.0" encoding="UTF-8" standalone="no"?>
<!DOCTYPE svg PUBLIC "-//W3C//DTD SVG 1.1//EN"
 "http://www.w3.org/Graphics/SVG/1.1/DTD/svg11.dtd">
<!-- Generated by graphviz version 10.0.1 (20240210.2158)
 -->
<!-- Pages: 1 -->
<svg width="463pt" height="128pt"
 viewBox="0.00 0.00 463.25 128.00" xmlns="http://www.w3.org/2000/svg" xmlns:xlink="http://www.w3.org/1999/xlink">
<g id="graph0" class="graph" transform="scale(1 1) rotate(0) translate(4 124)">
<polygon fill="white" stroke="none" points="-4,4 -4,-124 459.25,-124 459.25,4 -4,4"/>
<!-- 4346407040 -->
<g id="node1" class="node">
<title>4346407040</title>
<polygon fill="none" stroke="black" points="391.25,-27.5 391.25,-63.5 455.25,-63.5 455.25,-27.5 391.25,-27.5"/>
<text text-anchor="middle" x="423.25" y="-40.7" font-family="Times,serif" font-size="14.00">data=4.0</text>
</g>
<!-- 4346407040+ -->
<g id="node2" class="node">
<title>4346407040+</title>
<ellipse fill="none" stroke="black" cx="328.25" cy="-45.5" rx="27" ry="18"/>
<text text-anchor="middle" x="328.25" y="-40.45" font-family="Times,serif" font-size="14.00">+</text>
</g>
<!-- 4346407040+&#45;&gt;4346407040 -->
<g id="edge1" class="edge">
<title>4346407040+&#45;&gt;4346407040</title>
<path fill="none" stroke="black" d="M355.65,-45.5C363.1,-45.5 371.39,-45.5 379.54,-45.5"/>
<polygon fill="black" stroke="black" points="379.32,-49 389.32,-45.5 379.32,-42 379.32,-49"/>
</g>
<!-- 4346406848 -->
<g id="node3" class="node">
<title>4346406848</title>
<polygon fill="none" stroke="black" points="195.62,-55.5 195.62,-91.5 264.12,-91.5 264.12,-55.5 195.62,-55.5"/>
<text text-anchor="middle" x="229.88" y="-68.7" font-family="Times,serif" font-size="14.00">data=&#45;6.0</text>
</g>
<!-- 4346406848&#45;&gt;4346407040+ -->
<g id="edge2" class="edge">
<title>4346406848&#45;&gt;4346407040+</title>
<path fill="none" stroke="black" d="M264.58,-63.71C273.51,-61.11 283.18,-58.31 292.18,-55.69"/>
<polygon fill="black" stroke="black" points="293.04,-59.08 301.67,-52.93 291.09,-52.36 293.04,-59.08"/>
</g>
<!-- 4346408432 -->
<g id="node4" class="node">
<title>4346408432</title>
<polygon fill="none" stroke="black" points="194.5,-0.5 194.5,-36.5 265.25,-36.5 265.25,-0.5 194.5,-0.5"/>
<text text-anchor="middle" x="229.88" y="-13.7" font-family="Times,serif" font-size="14.00">data=10.0</text>
</g>
<!-- 4346408432&#45;&gt;4346407040+ -->
<g id="edge3" class="edge">
<title>4346408432&#45;&gt;4346407040+</title>
<path fill="none" stroke="black" d="M265.67,-28.25C274.22,-30.64 283.37,-33.21 291.95,-35.61"/>
<polygon fill="black" stroke="black" points="290.74,-38.91 301.32,-38.23 292.63,-32.17 290.74,-38.91"/>
</g>
<!-- 4346406848* -->
<g id="node5" class="node">
<title>4346406848*</title>
<ellipse fill="none" stroke="black" cx="131.5" cy="-73.5" rx="27" ry="18"/>
<text text-anchor="middle" x="131.5" y="-68.45" font-family="Times,serif" font-size="14.00">*</text>
</g>
<!-- 4346406848*&#45;&gt;4346406848 -->
<g id="edge4" class="edge">
<title>4346406848*&#45;&gt;4346406848</title>
<path fill="none" stroke="black" d="M158.83,-73.5C166.57,-73.5 175.27,-73.5 183.83,-73.5"/>
<polygon fill="black" stroke="black" points="183.81,-77 193.81,-73.5 183.81,-70 183.81,-77"/>
</g>
<!-- 4346408624 -->
<g id="node6" class="node">
<title>4346408624</title>
<polygon fill="none" stroke="black" points="2.25,-83.5 2.25,-119.5 66.25,-119.5 66.25,-83.5 2.25,-83.5"/>
<text text-anchor="middle" x="34.25" y="-96.7" font-family="Times,serif" font-size="14.00">data=2.0</text>
</g>
<!-- 4346408624&#45;&gt;4346406848* -->
<g id="edge5" class="edge">
<title>4346408624&#45;&gt;4346406848*</title>
<path fill="none" stroke="black" d="M66.7,-92.25C75.87,-89.56 85.95,-86.6 95.33,-83.84"/>
<polygon fill="black" stroke="black" points="96.26,-87.21 104.87,-81.03 94.29,-80.5 96.26,-87.21"/>
</g>
<!-- 4346408528 -->
<g id="node7" class="node">
<title>4346408528</title>
<polygon fill="none" stroke="black" points="0,-28.5 0,-64.5 68.5,-64.5 68.5,-28.5 0,-28.5"/>
<text text-anchor="middle" x="34.25" y="-41.7" font-family="Times,serif" font-size="14.00">data=&#45;3.0</text>
</g>
<!-- 4346408528&#45;&gt;4346406848* -->
<g id="edge6" class="edge">
<title>4346408528&#45;&gt;4346406848*</title>
<path fill="none" stroke="black" d="M68.83,-56.02C77.4,-58.45 86.63,-61.06 95.27,-63.51"/>
<polygon fill="black" stroke="black" points="94.16,-66.84 104.74,-66.2 96.07,-60.1 94.16,-66.84"/>
</g>
</g>
</svg>
