<?xml version="1.0" encoding="UTF-8" standalone="no"?>
<!DOCTYPE svg PUBLIC "-//W3C//DTD SVG 1.1//EN"
 "http://www.w3.org/Graphics/SVG/1.1/DTD/svg11.dtd">
<!-- Generated by graphviz version 10.0.1 (20240210.2158)
 -->
<!-- Pages: 1 -->
<svg width="873pt" height="160pt"
 viewBox="0.00 0.00 873.25 160.00" xmlns="http://www.w3.org/2000/svg" xmlns:xlink="http://www.w3.org/1999/xlink">
<g id="graph0" class="graph" transform="scale(1 1) rotate(0) translate(4 156)">
<polygon fill="white" stroke="none" points="-4,4 -4,-156 869.25,-156 869.25,4 -4,4"/>
<!-- 4424632736 -->
<g id="node1" class="node">
<title>4424632736</title>
<polygon fill="none" stroke="black" points="801.25,-34.5 801.25,-83.5 865.25,-83.5 865.25,-34.5 801.25,-34.5"/>
<text text-anchor="middle" x="833.25" y="-66.2" font-family="Times,serif" font-size="14.00">d</text>
<polyline fill="none" stroke="black" points="801.25,-59 865.25,-59"/>
<text text-anchor="middle" x="833.25" y="-41.7" font-family="Times,serif" font-size="14.00">data=0.0</text>
</g>
<!-- 4424632736&#45; -->
<g id="node2" class="node">
<title>4424632736&#45;</title>
<ellipse fill="none" stroke="black" cx="738.25" cy="-59" rx="27" ry="18"/>
<text text-anchor="middle" x="738.25" y="-53.95" font-family="Times,serif" font-size="14.00">&#45;</text>
</g>
<!-- 4424632736&#45;&#45;&gt;4424632736 -->
<g id="edge1" class="edge">
<title>4424632736&#45;&#45;&gt;4424632736</title>
<path fill="none" stroke="black" d="M765.65,-59C773.1,-59 781.39,-59 789.54,-59"/>
<polygon fill="black" stroke="black" points="789.32,-62.5 799.32,-59 789.32,-55.5 789.32,-62.5"/>
</g>
<!-- 4424632496 -->
<g id="node3" class="node">
<title>4424632496</title>
<polygon fill="none" stroke="black" points="583.5,-68.5 583.5,-117.5 675.25,-117.5 675.25,-68.5 583.5,-68.5"/>
<text text-anchor="middle" x="629.38" y="-100.2" font-family="Times,serif" font-size="14.00">a*b+c+rvalue</text>
<polyline fill="none" stroke="black" points="583.5,-93 675.25,-93"/>
<text text-anchor="middle" x="629.38" y="-75.7" font-family="Times,serif" font-size="14.00">data=24.0</text>
</g>
<!-- 4424632496&#45;&gt;4424632736&#45; -->
<g id="edge2" class="edge">
<title>4424632496&#45;&gt;4424632736&#45;</title>
<path fill="none" stroke="black" d="M675.7,-78.58C684.72,-75.71 694.05,-72.74 702.64,-70.01"/>
<polygon fill="black" stroke="black" points="703.51,-73.41 711.98,-67.04 701.39,-66.74 703.51,-73.41"/>
</g>
<!-- 4424632640 -->
<g id="node4" class="node">
<title>4424632640</title>
<polygon fill="none" stroke="black" points="599.25,-0.5 599.25,-49.5 659.5,-49.5 659.5,-0.5 599.25,-0.5"/>
<text text-anchor="middle" x="629.38" y="-32.2" font-family="Times,serif" font-size="14.00">rvalue</text>
<polyline fill="none" stroke="black" points="599.25,-25 659.5,-25"/>
<text text-anchor="middle" x="629.38" y="-7.7" font-family="Times,serif" font-size="14.00">data=24</text>
</g>
<!-- 4424632640&#45;&gt;4424632736&#45; -->
<g id="edge3" class="edge">
<title>4424632640&#45;&gt;4424632736&#45;</title>
<path fill="none" stroke="black" d="M659.86,-34.38C673.12,-38.6 688.86,-43.61 702.68,-48"/>
<polygon fill="black" stroke="black" points="701.22,-51.21 711.81,-50.91 703.35,-44.54 701.22,-51.21"/>
</g>
<!-- 4424632496+ -->
<g id="node5" class="node">
<title>4424632496+</title>
<ellipse fill="none" stroke="black" cx="520.5" cy="-93" rx="27" ry="18"/>
<text text-anchor="middle" x="520.5" y="-87.95" font-family="Times,serif" font-size="14.00">+</text>
</g>
<!-- 4424632496+&#45;&gt;4424632496 -->
<g id="edge4" class="edge">
<title>4424632496+&#45;&gt;4424632496</title>
<path fill="none" stroke="black" d="M547.92,-93C555.23,-93 563.45,-93 571.78,-93"/>
<polygon fill="black" stroke="black" points="571.61,-96.5 581.61,-93 571.61,-89.5 571.61,-96.5"/>
</g>
<!-- 4424632448 -->
<g id="node6" class="node">
<title>4424632448</title>
<polygon fill="none" stroke="black" points="392,-102.5 392,-151.5 452.25,-151.5 452.25,-102.5 392,-102.5"/>
<text text-anchor="middle" x="422.12" y="-134.2" font-family="Times,serif" font-size="14.00">rvalue</text>
<polyline fill="none" stroke="black" points="392,-127 452.25,-127"/>
<text text-anchor="middle" x="422.12" y="-109.7" font-family="Times,serif" font-size="14.00">data=10</text>
</g>
<!-- 4424632448&#45;&gt;4424632496+ -->
<g id="edge5" class="edge">
<title>4424632448&#45;&gt;4424632496+</title>
<path fill="none" stroke="black" d="M452.56,-116.61C462.92,-112.96 474.64,-108.83 485.35,-105.05"/>
<polygon fill="black" stroke="black" points="486.35,-108.41 494.61,-101.78 484.02,-101.81 486.35,-108.41"/>
</g>
<!-- 4372948928 -->
<g id="node7" class="node">
<title>4372948928</title>
<polygon fill="none" stroke="black" points="386.75,-34.5 386.75,-83.5 457.5,-83.5 457.5,-34.5 386.75,-34.5"/>
<text text-anchor="middle" x="422.12" y="-66.2" font-family="Times,serif" font-size="14.00">a*b+c</text>
<polyline fill="none" stroke="black" points="386.75,-59 457.5,-59"/>
<text text-anchor="middle" x="422.12" y="-41.7" font-family="Times,serif" font-size="14.00">data=14.0</text>
</g>
<!-- 4372948928&#45;&gt;4424632496+ -->
<g id="edge6" class="edge">
<title>4372948928&#45;&gt;4424632496+</title>
<path fill="none" stroke="black" d="M457.92,-71.27C466.87,-74.43 476.48,-77.82 485.39,-80.97"/>
<polygon fill="black" stroke="black" points="484.18,-84.25 494.77,-84.28 486.51,-77.65 484.18,-84.25"/>
</g>
<!-- 4372948928* -->
<g id="node8" class="node">
<title>4372948928*</title>
<ellipse fill="none" stroke="black" cx="323.75" cy="-59" rx="27" ry="18"/>
<text text-anchor="middle" x="323.75" y="-53.95" font-family="Times,serif" font-size="14.00">*</text>
</g>
<!-- 4372948928*&#45;&gt;4372948928 -->
<g id="edge7" class="edge">
<title>4372948928*&#45;&gt;4372948928</title>
<path fill="none" stroke="black" d="M351.08,-59C358.51,-59 366.81,-59 375.03,-59"/>
<polygon fill="black" stroke="black" points="374.99,-62.5 384.99,-59 374.99,-55.5 374.99,-62.5"/>
</g>
<!-- 4372948736 -->
<g id="node9" class="node">
<title>4372948736</title>
<polygon fill="none" stroke="black" points="196.75,-68.5 196.75,-117.5 260.75,-117.5 260.75,-68.5 196.75,-68.5"/>
<text text-anchor="middle" x="228.75" y="-100.2" font-family="Times,serif" font-size="14.00">b+c</text>
<polyline fill="none" stroke="black" points="196.75,-93 260.75,-93"/>
<text text-anchor="middle" x="228.75" y="-75.7" font-family="Times,serif" font-size="14.00">data=7.0</text>
</g>
<!-- 4372948736&#45;&gt;4372948928* -->
<g id="edge8" class="edge">
<title>4372948736&#45;&gt;4372948928*</title>
<path fill="none" stroke="black" d="M261.24,-81.49C270.15,-78.23 279.89,-74.67 288.94,-71.36"/>
<polygon fill="black" stroke="black" points="289.92,-74.73 298.11,-68.01 287.51,-68.16 289.92,-74.73"/>
</g>
<!-- 4372950560 -->
<g id="node10" class="node">
<title>4372950560</title>
<polygon fill="none" stroke="black" points="196.75,-0.5 196.75,-49.5 260.75,-49.5 260.75,-0.5 196.75,-0.5"/>
<text text-anchor="middle" x="228.75" y="-32.2" font-family="Times,serif" font-size="14.00">a</text>
<polyline fill="none" stroke="black" points="196.75,-25 260.75,-25"/>
<text text-anchor="middle" x="228.75" y="-7.7" font-family="Times,serif" font-size="14.00">data=2.0</text>
</g>
<!-- 4372950560&#45;&gt;4372948928* -->
<g id="edge9" class="edge">
<title>4372950560&#45;&gt;4372948928*</title>
<path fill="none" stroke="black" d="M261.24,-36.51C270.15,-39.77 279.89,-43.33 288.94,-46.64"/>
<polygon fill="black" stroke="black" points="287.51,-49.84 298.11,-49.99 289.92,-43.27 287.51,-49.84"/>
</g>
<!-- 4372948736+ -->
<g id="node11" class="node">
<title>4372948736+</title>
<ellipse fill="none" stroke="black" cx="133.75" cy="-93" rx="27" ry="18"/>
<text text-anchor="middle" x="133.75" y="-87.95" font-family="Times,serif" font-size="14.00">+</text>
</g>
<!-- 4372948736+&#45;&gt;4372948736 -->
<g id="edge10" class="edge">
<title>4372948736+&#45;&gt;4372948736</title>
<path fill="none" stroke="black" d="M161.15,-93C168.6,-93 176.89,-93 185.04,-93"/>
<polygon fill="black" stroke="black" points="184.82,-96.5 194.82,-93 184.82,-89.5 184.82,-96.5"/>
</g>
<!-- 4372950032 -->
<g id="node12" class="node">
<title>4372950032</title>
<polygon fill="none" stroke="black" points="0,-102.5 0,-151.5 70.75,-151.5 70.75,-102.5 0,-102.5"/>
<text text-anchor="middle" x="35.38" y="-134.2" font-family="Times,serif" font-size="14.00">c</text>
<polyline fill="none" stroke="black" points="0,-127 70.75,-127"/>
<text text-anchor="middle" x="35.38" y="-109.7" font-family="Times,serif" font-size="14.00">data=10.0</text>
</g>
<!-- 4372950032&#45;&gt;4372948736+ -->
<g id="edge11" class="edge">
<title>4372950032&#45;&gt;4372948736+</title>
<path fill="none" stroke="black" d="M71.17,-114.73C80.12,-111.57 89.73,-108.18 98.64,-105.03"/>
<polygon fill="black" stroke="black" points="99.76,-108.35 108.02,-101.72 97.43,-101.75 99.76,-108.35"/>
</g>
<!-- 4372950368 -->
<g id="node13" class="node">
<title>4372950368</title>
<polygon fill="none" stroke="black" points="1.12,-34.5 1.12,-83.5 69.62,-83.5 69.62,-34.5 1.12,-34.5"/>
<text text-anchor="middle" x="35.38" y="-66.2" font-family="Times,serif" font-size="14.00">b</text>
<polyline fill="none" stroke="black" points="1.12,-59 69.62,-59"/>
<text text-anchor="middle" x="35.38" y="-41.7" font-family="Times,serif" font-size="14.00">data=&#45;3.0</text>
</g>
<!-- 4372950368&#45;&gt;4372948736+ -->
<g id="edge12" class="edge">
<title>4372950368&#45;&gt;4372948736+</title>
<path fill="none" stroke="black" d="M70.08,-70.89C79.27,-74.13 89.22,-77.64 98.44,-80.9"/>
<polygon fill="black" stroke="black" points="97.19,-84.17 107.79,-84.19 99.52,-77.57 97.19,-84.17"/>
</g>
</g>
</svg>
